<svg id="visual" viewBox="0 0 900 600" width="900" height="600" xmlns="http://www.w3.org/2000/svg" xmlns:xlink="http://www.w3.org/1999/xlink" version="1.1"><rect x="0" y="0" width="900" height="600" fill="#37b9b4"></rect><path d="M0 324L11.5 342C23 360 46 396 69 413.2C92 430.3 115 428.7 138.2 415.5C161.3 402.3 184.7 377.7 207.8 367.2C231 356.7 254 360.3 277 362.2C300 364 323 364 346 377.2C369 390.3 392 416.7 415.2 424.8C438.3 433 461.7 423 484.8 396.5C508 370 531 327 554 325.2C577 323.3 600 362.7 623 366C646 369.3 669 336.7 692.2 316.8C715.3 297 738.7 290 761.8 295.8C785 301.7 808 320.3 831 338.2C854 356 877 373 888.5 381.5L900 390L900 601L888.5 601C877 601 854 601 831 601C808 601 785 601 761.8 601C738.7 601 715.3 601 692.2 601C669 601 646 601 623 601C600 601 577 601 554 601C531 601 508 601 484.8 601C461.7 601 438.3 601 415.2 601C392 601 369 601 346 601C323 601 300 601 277 601C254 601 231 601 207.8 601C184.7 601 161.3 601 138.2 601C115 601 92 601 69 601C46 601 23 601 11.5 601L0 601Z" fill="#cfea98" stroke-linecap="round" stroke-linejoin="miter"></path></svg>